Coordinates
version=1
nRows=33
nColumns=38
inDegrees=no

Units are S.I. units (second, meters, Newtons, ...)
If the header above contains a line with 'inDegrees', this indicates whether rotational values are in degrees (yes) or radians (no).

endheader
time	pelvis_tilt	pelvis_list	pelvis_rotation	pelvis_tx	pelvis_ty	pelvis_tz	hip_flexion_r	hip_adduction_r	hip_rotation_r	knee_angle_r	ankle_angle_r	subtalar_angle_r	mtp_angle_r	hip_flexion_l	hip_adduction_l	hip_rotation_l	knee_angle_l	ankle_angle_l	subtalar_angle_l	mtp_angle_l	lumbar_extension	lumbar_bending	lumbar_rotation	arm_flex_r	arm_add_r	arm_rot_r	elbow_flex_r	pro_sup_r	wrist_flex_r	wrist_dev_r	arm_flex_l	arm_add_l	arm_rot_l	elbow_flex_l	pro_sup_l	wrist_flex_l	wrist_dev_l
5.375	-0.107312	-0.0279102	-3.14678	-0.350619	0.958492	0.0801828	0.350629	-0.0675579	-0.128052	0.194388	0.0458802	0	0	-0.274053	0.0612766	-0.0487705	0.226396	0.325176	0	0	-0.318587	0.0447112	-0.235374	0.202191	-0.31002	1.5708	0.325131	-0.000243636	0	0	0.516077	-0.50053	1.30525	0.646751	0.341417	0	0
5.385	-0.109257	-0.0268764	-3.14048	-0.351148	0.957901	0.078734	0.349511	-0.0674024	-0.13187	0.211195	0.0433077	0	0	-0.281158	0.0553527	-0.0443326	0.235416	0.328859	0	0	-0.319543	0.0477195	-0.236749	0.203724	-0.307578	1.5708	0.324785	-0.000376898	0	0	0.511656	-0.49343	1.31159	0.644066	0.352148	0	0
5.39499	-0.111449	-0.0255942	-3.13383	-0.351852	0.957401	0.0771811	0.347694	-0.0669419	-0.136615	0.229024	0.0388199	0	0	-0.288129	0.0487642	-0.0398375	0.245324	0.331499	0	0	-0.320407	0.0509344	-0.238159	0.205445	-0.304942	1.5708	0.324434	-0.000529157	0	0	0.506898	-0.485924	1.32071	0.639848	0.361568	0	0
5.40498	-0.113855	-0.0240622	-3.12697	-0.352738	0.956993	0.0755153	0.345077	-0.0660672	-0.141911	0.247093	0.0325881	0	0	-0.294852	0.0415181	-0.0354368	0.256238	0.332882	0	0	-0.321127	0.0543155	-0.239517	0.207337	-0.302132	1.5708	0.324105	-0.000692085	0	0	0.5017	-0.478048	1.33239	0.634157	0.369669	0	0
5.41497	-0.116426	-0.0223057	-3.12001	-0.353807	0.956676	0.0737295	0.341628	-0.0647272	-0.147452	0.264827	0.0249093	0	0	-0.301166	0.0336501	-0.0312865	0.268324	0.332774	0	0	-0.32165	0.0577958	-0.240743	0.209397	-0.299168	1.5708	0.323833	-0.000852082	0	0	0.495951	-0.469858	1.34634	0.62712	0.37633	0	0
5.42496	-0.119107	-0.0203679	-3.11307	-0.355056	0.956445	0.0718189	0.337384	-0.0629194	-0.153018	0.281874	0.0162161	0	0	-0.306871	0.0252163	-0.0275481	0.281791	0.33091	0	0	-0.321928	0.0612926	-0.241761	0.211634	-0.296074	1.5708	0.323658	-0.000988653	0	0	0.489542	-0.461426	1.3622	0.61891	0.381308	0	0
5.43495	-0.121833	-0.0182995	-3.10627	-0.356474	0.956293	0.0697809	0.332444	-0.0606767	-0.158481	0.298084	0.00707672	0	0	-0.311727	0.0162817	-0.0243913	0.296887	0.327002	0	0	-0.321922	0.0647182	-0.242494	0.214077	-0.292876	1.5708	0.323627	-0.00107281	0	0	0.482383	-0.452827	1.37962	0.609726	0.384276	0	0
5.44494	-0.124542	-0.0161508	-3.09973	-0.358042	0.956212	0.0676148	0.326942	-0.0580515	-0.163789	0.313454	-0.0018411	0	0	-0.315466	0.00691162	-0.0219888	0.313893	0.320746	0	0	-0.321613	0.06799	-0.242853	0.21677	-0.289607	1.5708	0.323792	-0.00106573	0	0	0.474413	-0.444133	1.39822	0.59977	0.384861	0	0
5.45493	-0.127181	-0.0139609	-3.09357	-0.359737	0.956194	0.0653222	0.321007	-0.055096	-0.168952	0.328054	-0.0098372	0	0	-0.317817	-0.00284222	-0.020506	0.333099	0.311825	0	0	-0.321009	0.0710446	-0.242743	0.219774	-0.286306	1.5708	0.324209	-0.000917877	0	0	0.465611	-0.435411	1.41762	0.589243	0.382699	0	0
5.46492	-0.129721	-0.0117494	-3.0879	-0.361528	0.956236	0.0629071	0.31473	-0.0518436	-0.174006	0.341962	-0.0162542	0	0	-0.318524	-0.012949	-0.0200863	0.354789	0.299933	0	0	-0.320155	0.0738485	-0.242063	0.223165	-0.283018	1.5708	0.324934	-0.000569116	0	0	0.455985	-0.426718	1.43745	0.578334	0.377487	0	0
5.47491	-0.132155	-0.00951444	-3.08278	-0.363378	0.956337	0.0603758	0.308149	-0.0482964	-0.178974	0.355213	-0.020546	0	0	-0.317354	-0.0233994	-0.0208404	0.379226	0.284793	0	0	-0.319134	0.0764012	-0.240713	0.227035	-0.279792	1.5708	0.326022	4.98383e-05	0	0	0.445578	-0.418105	1.45732	0.567222	0.369021	0	0
5.4849	-0.134499	-0.00723556	-3.07831	-0.365247	0.956501	0.0577366	0.301244	-0.0444223	-0.183839	0.367774	-0.0223335	0	0	-0.314111	-0.0341994	-0.0228337	0.406625	0.266197	0	0	-0.318063	0.0787319	-0.238594	0.231493	-0.276679	1.5708	0.327523	0.00101463	0	0	0.43446	-0.409619	1.4768	0.556073	0.357238	0	0
5.49489	-0.136794	-0.00488167	-3.07452	-0.36709	0.956735	0.0550007	0.293942	-0.0401659	-0.188544	0.379542	-0.0214462	0	0	-0.308647	-0.0453604	-0.0260666	0.437139	0.24405	0	0	-0.317085	0.0808915	-0.235629	0.236651	-0.273731	1.5708	0.329481	0.00240908	0	0	0.422715	-0.401308	1.49545	0.545046	0.342252	0	0
5.50488	-0.139095	-0.00242279	-3.07142	-0.368866	0.957046	0.0521825	0.286126	-0.0354719	-0.193025	0.390358	-0.0179427	0	0	-0.300872	-0.0568826	-0.0304456	0.470839	0.218408	0	0	-0.31635	0.0829414	-0.231782	0.242623	-0.270998	1.57079	0.331927	0.0043223	0	0	0.41043	-0.393226	1.5128	0.534302	0.324372	0	0
5.51487	-0.141464	0.000157108	-3.06897	-0.370535	0.957442	0.0493008	0.277662	-0.0303095	-0.197247	0.400023	-0.0120959	0	0	-0.290752	-0.0687363	-0.0357635	0.507698	0.189518	0	0	-0.315996	0.0849391	-0.227075	0.249511	-0.268519	1.57078	0.33489	0.006836	0	0	0.397676	-0.385443	1.52835	0.524004	0.3041	0	0
5.52487	-0.14395	0.0028526	-3.06711	-0.372062	0.957927	0.0463774	0.268429	-0.024687	-0.201206	0.408329	-0.00433235	0	0	-0.278301	-0.0808455	-0.0417025	0.54758	0.157828	0	0	-0.316123	0.0869273	-0.221584	0.257397	-0.266328	1.57077	0.338384	0.0100161	0	0	0.384522	-0.378025	1.54166	0.514301	0.282051	0	0
5.53486	-0.146582	0.00563548	-3.06572	-0.373418	0.958501	0.043436	0.258343	-0.0186505	-0.204928	0.415096	0.00485545	0	0	-0.263578	-0.093082	-0.0478624	0.590232	0.123983	0	0	-0.316786	0.0889281	-0.215422	0.266331	-0.26445	1.57076	0.342413	0.0139141	0	0	0.371045	-0.371024	1.55248	0.505301	0.258811	0	0
5.54485	-0.14937	0.00845529	-3.06467	-0.374584	0.959159	0.0405023	0.247361	-0.0122827	-0.208447	0.420202	0.0149861	0	0	-0.246696	-0.105269	-0.0537978	0.635284	0.0887833	0	0	-0.317996	0.090944	-0.208731	0.276331	-0.262904	1.57074	0.346961	0.018564	0	0	0.357343	-0.36446	1.56085	0.497052	0.234845	0	0
5.55484	-0.152317	0.0112437	-3.06381	-0.375542	0.959897	0.0376036	0.235475	-0.0056942	-0.211794	0.423584	0.0256339	0	0	-0.227826	-0.117194	-0.0590702	0.682246	0.0531301	0	0	-0.319738	0.0929635	-0.201671	0.287387	-0.261705	1.57072	0.351999	0.0239745	0	0	0.343529	-0.358328	1.56699	0.489558	0.210519	0	0
5.56483	-0.155427	0.0139227	-3.063	-0.376282	0.960708	0.0347663	0.222698	0.000993409	-0.214971	0.425239	0.0364425	0	0	-0.20721	-0.128623	-0.0633112	0.730522	0.0179615	0	0	-0.321997	0.0949646	-0.194398	0.299472	-0.260862	1.57069	0.357482	0.0301264	0	0	0.329715	-0.352602	1.57121	0.482784	0.186137	0	0
5.57482	-0.158715	0.016413	-3.06215	-0.376799	0.961589	0.0320135	0.209052	0.00766374	-0.217936	0.425212	0.0471208	0	0	-0.185166	-0.13932	-0.0662789	0.779423	-0.015795	0	0	-0.324772	0.096916	-0.187033	0.312543	-0.260379	1.57067	0.363355	0.036974	0	0	0.31602	-0.347237	1.57387	0.476668	0.16197	0	0
5.58481	-0.162204	0.0186343	-3.0612	-0.377089	0.96254	0.0293634	0.19457	0.0142051	-0.220608	0.423591	0.0574373	0	0	-0.162067	-0.149058	-0.0678732	0.828197	-0.0472369	0	0	-0.328075	0.0987701	-0.179648	0.326547	-0.26026	1.57065	0.369554	0.0444432	0	0	0.302555	-0.342181	1.57533	0.471136	0.1383	0	0
5.5948	-0.165919	0.0205028	-3.06014	-0.377157	0.963563	0.0268288	0.179288	0.0205053	-0.22289	0.42049	0.0672192	0	0	-0.138329	-0.157623	-0.0681221	0.876067	-0.0754757	0	0	-0.331925	0.100457	-0.172273	0.341407	-0.260502	1.57063	0.376008	0.0524332	0	0	0.289422	-0.337385	1.5759	0.466116	0.115449	0	0
5.60479	-0.16988	0.02193	-3.059	-0.377012	0.964659	0.0244161	0.163242	0.0264487	-0.22468	0.416036	0.0763465	0	0	-0.11438	-0.164819	-0.0671608	0.922274	-0.0996246	0	0	-0.336335	0.101882	-0.164891	0.357023	-0.261094	1.57063	0.38264	0.0608207	0	0	0.276704	-0.332809	1.57585	0.461549	0.0937813	0	0
5.61478	-0.174089	0.0228288	-3.05788	-0.376666	0.96583	0.0221246	0.146489	0.0319216	-0.225879	0.41036	0.0847397	0	0	-0.0906141	-0.170483	-0.0652231	0.966123	-0.118823	0	0	-0.341301	0.102925	-0.157439	0.373278	-0.262022	1.57064	0.389375	0.0694688	0	0	0.264468	-0.328425	1.57542	0.457391	0.0736832	0	0
5.62477	-0.178524	0.0231231	-3.05688	-0.376137	0.967076	0.0199466	0.129109	0.0368241	-0.226392	0.403592	0.0923578	0	0	-0.0673606	-0.174497	-0.0626217	1.00701	-0.132378	0	0	-0.346789	0.103456	-0.149816	0.39004	-0.263267	1.57068	0.396141	0.0782393	0	0	0.252758	-0.32422	1.57478	0.453611	0.0555242	0	0
5.63476	-0.183144	0.0227551	-3.05615	-0.375446	0.968393	0.0178686	0.11119	0.0410777	-0.226138	0.395854	0.0991925	0	0	-0.0448844	-0.176803	-0.0597124	1.0444	-0.139994	0	0	-0.352741	0.103346	-0.141905	0.407167	-0.264799	1.57076	0.402866	0.086987	0	0	0.241588	-0.320192	1.57405	0.45019	0.039652	0	0
5.64475	-0.187903	0.021694	-3.05581	-0.374618	0.969776	0.0158744	0.0928172	0.0446321	-0.225055	0.387252	0.105267	0	0	-0.0233889	-0.177413	-0.056854	1.07783	-0.141944	0	0	-0.359073	0.102491	-0.133602	0.424511	-0.266583	1.57089	0.409477	0.0955619	0	0	0.230942	-0.316354	1.57332	0.44712	0.026355	0	0
5.65474	-0.192742	0.019943	-3.056	-0.37368	0.971213	0.0139469	0.0740856	0.0474703	-0.223099	0.377883	0.110632	0	0	-0.00301029	-0.176396	-0.0543776	1.10689	-0.139	0	0	-0.365677	0.100822	-0.124832	0.441933	-0.268577	1.57108	0.415923	0.103821	0	0	0.220777	-0.312721	1.57266	0.444394	0.0157629	0	0
5.66474	-0.197585	0.0175383	-3.05679	-0.372656	0.972691	0.0120699	0.0551088	0.049604	-0.220249	0.367844	0.115348	0	0	0.0161832	-0.173871	-0.0525641	1.13127	-0.132232	0	0	-0.372425	0.098317	-0.115555	0.459319	-0.270742	1.57133	0.422176	0.111636	0	0	0.211033	-0.309307	1.57209	0.442	0.00774266	0	0
5.67473	-0.202355	0.0145466	-3.05826	-0.371565	0.974191	0.0102299	0.0360112	0.0510703	-0.216515	0.357232	0.119484	0	0	0.0341764	-0.169995	-0.0516291	1.15075	-0.122762	0	0	-0.379189	0.0949978	-0.105772	0.47658	-0.273043	1.57167	0.428248	0.118914	0	0	0.201642	-0.306121	1.57162	0.439921	0.0020042	0	0
5.68472	-0.206971	0.0110565	-3.06043	-0.370423	0.975692	0.00841784	0.0169242	0.0519226	-0.211946	0.346155	0.123116	0	0	0.0509981	-0.164952	-0.0517158	1.16522	-0.111586	0	0	-0.385844	0.0909319	-0.0955337	0.49366	-0.275452	1.57209	0.434178	0.125615	0	0	0.192533	-0.303161	1.57125	0.438126	-0.00181965	0	0
5.69471	-0.211354	0.00717214	-3.06327	-0.369241	0.977168	0.00662946	-0.00201713	0.0522267	-0.206643	0.334719	0.12632	0	0	0.0667162	-0.158942	-0.0528963	1.17468	-0.0994816	0	0	-0.392268	0.0862226	-0.0849391	0.510516	-0.277941	1.57259	0.440024	0.13173	0	0	0.183633	-0.300424	1.57098	0.436577	-0.00411604	0	0
